<?xml version="1.0" encoding="UTF-8" standalone="no"?>
<!-- Created with Inkscape (http://www.inkscape.org/) -->

<svg
   xmlns:dc="http://purl.org/dc/elements/1.1/"
   xmlns:cc="http://creativecommons.org/ns#"
   xmlns:rdf="http://www.w3.org/1999/02/22-rdf-syntax-ns#"
   xmlns:svg="http://www.w3.org/2000/svg"
   xmlns="http://www.w3.org/2000/svg"
   xmlns:xlink="http://www.w3.org/1999/xlink"
   xmlns:sodipodi="http://sodipodi.sourceforge.net/DTD/sodipodi-0.dtd"
   xmlns:inkscape="http://www.inkscape.org/namespaces/inkscape"
   width="33"
   height="34"
   id="svg2"
   version="1.1"
   inkscape:version="0.92.2pre0 (973e216, 2017-07-25)"
   sodipodi:docname="tab_active.svg">
  <defs
     id="defs4">
    <linearGradient
       id="linearGradient3816">
      <stop
         id="stop3824"
         offset="0"
         style="stop-color:#5c5c5c;stop-opacity:1" />
      <stop
         style="stop-color:#474747;stop-opacity:1"
         offset="0.14981742"
         id="stop832" />
      <stop
         style="stop-color:#353535;stop-opacity:1"
         offset="1"
         id="stop3820" />
    </linearGradient>
    <linearGradient
       id="linearGradient3800">
      <stop
         style="stop-color:#000000;stop-opacity:1;"
         offset="0"
         id="stop3802" />
      <stop
         style="stop-color:#000000;stop-opacity:0;"
         offset="1"
         id="stop3804" />
    </linearGradient>
    <linearGradient
       inkscape:collect="always"
       xlink:href="#linearGradient3816-3"
       id="linearGradient3822-0"
       x1="83.785759"
       y1="995.26154"
       x2="83.620377"
       y2="1024.3687"
       gradientUnits="userSpaceOnUse" />
    <linearGradient
       id="linearGradient3816-3">
      <stop
         id="stop3824-8"
         offset="0"
         style="stop-color:#5d4e4f;stop-opacity:1;" />
      <stop
         style="stop-color:#4e3f40;stop-opacity:1;"
         offset="1"
         id="stop3820-7" />
    </linearGradient>
    <linearGradient
       gradientTransform="translate(0.13621466,-0.13156849)"
       y2="1024.3687"
       x2="83.620377"
       y1="995.26154"
       x1="83.785759"
       gradientUnits="userSpaceOnUse"
       id="linearGradient3860"
       xlink:href="#linearGradient3816-3"
       inkscape:collect="always" />
    <linearGradient
       inkscape:collect="always"
       xlink:href="#linearGradient3816"
       id="linearGradient960"
       gradientUnits="userSpaceOnUse"
       gradientTransform="matrix(-1.0422751,0,0,0.85918958,47.324462,170.63012)"
       x1="49.814976"
       y1="992.99835"
       x2="49.745106"
       y2="1029.6664" />
  </defs>
  <sodipodi:namedview
     id="base"
     pagecolor="#ffffff"
     bordercolor="#666666"
     borderopacity="1.0"
     inkscape:pageopacity="0.0"
     inkscape:pageshadow="2"
     inkscape:zoom="15.999999"
     inkscape:cx="3.4374961"
     inkscape:cy="18.244913"
     inkscape:document-units="px"
     inkscape:current-layer="layer4"
     showgrid="false"
     inkscape:window-width="1920"
     inkscape:window-height="1018"
     inkscape:window-x="0"
     inkscape:window-y="0"
     inkscape:window-maximized="1"
     inkscape:snap-global="false"
     fit-margin-top="0"
     fit-margin-left="0"
     fit-margin-right="0"
     fit-margin-bottom="0" />
  <metadata
     id="metadata7">
    <rdf:RDF>
      <cc:Work
         rdf:about="">
        <dc:format>image/svg+xml</dc:format>
        <dc:type
           rdf:resource="http://purl.org/dc/dcmitype/StillImage" />
        <dc:title />
      </cc:Work>
    </rdf:RDF>
  </metadata>
  <g
     inkscape:label="Layer 1"
     inkscape:groupmode="layer"
     id="layer1"
     style="display:inline"
     transform="translate(12.561922,-1021.3622)" />
  <g
     inkscape:groupmode="layer"
     id="layer6"
     inkscape:label="Layer 0.5"
     style="display:inline"
     transform="translate(12.561922,-1021.3622)" />
  <g
     inkscape:groupmode="layer"
     id="layer5"
     inkscape:label="Layer 1.5"
     style="display:inline"
     transform="translate(12.561922,-1021.3622)" />
  <g
     inkscape:groupmode="layer"
     id="layer2"
     inkscape:label="Layer 2"
     style="display:inline"
     transform="translate(12.561922,-1021.3622)" />
  <g
     inkscape:groupmode="layer"
     id="layer3"
     inkscape:label="Layer 3"
     style="display:inline"
     transform="translate(12.561922,-1021.3622)" />
  <g
     inkscape:groupmode="layer"
     id="layer4"
     inkscape:label="Layer 4"
     style="display:inline"
     transform="translate(12.561922,-1021.3622)">
    <path
       id="rect3007-3-9-0"
       style="display:inline;fill:#717171;fill-opacity:1;stroke:none"
       d="m 4.456051,1021.8642 c 1.642985,0.016 2.363526,1.4552 2.956637,2.998 l 2.6875,7.375 c 0.505083,1.395 -2.0996108,4.6975 -2.0996108,4.6975 l -3.0625002,1.715 -1.6695261,0.156 z m -1,0 c -1.642985,0.016 -2.363526,1.4552 -2.956637,2.998 l -2.75,7.3125 c -0.5050823,1.2075 1.1261647,4.1975 1.1261647,4.1975 l 2.3125002,2.2775 2.080472,0.219 1.1875001,-17.0065 z"
       inkscape:connector-curvature="0"
       sodipodi:nodetypes="ccccccccccccccc" />
    <path
       id="rect3007-3-9-0-3"
       style="display:inline;fill:#5a5a5a;fill-opacity:1;stroke:none"
       d="m 3.956051,1035.7642 c 1.642985,0.016 7.613526,0.2052 8.206637,1.748 l 4.8125,12.625 c 0.817583,0.8325 3.46289,2.135 3.46289,2.135 v 2.09 l -15.982027,-0.094 z m -1,0 c -1.642985,0.016 -6.5510263,0.1427 -7.1441373,1.6855 l -4.8749997,12.6875 c -0.817583,0.8325 -3.498836,2.135 -3.498836,2.135 v 2.09 l 17.017973,-0.031 -0.5,-18.569 z"
       inkscape:connector-curvature="0"
       sodipodi:nodetypes="ccccccccccccccc" />
    <path
       id="rect3007-9"
       style="display:inline;fill:url(#linearGradient960);fill-opacity:1;stroke:none;stroke-width:0.95742708"
       d="m 4.456051,1023.3622 c 1.65199,0.014 2.89331,1.2578 3.706637,3.4375 l 8.0625,22.25 c 0.971672,2.6815 1.581564,3.5982 4.21289,4.3125 v 2 H 4.456051 m 0,0 v -32 h -1 c -1.65199,0.014 -3.01830999,1.3828 -3.706637,3.4375 l -8.0625004,22.25 c -0.9716715,2.6815 -1.61751,3.5982 -4.2488356,4.3125 v 2"
       inkscape:connector-curvature="0"
       sodipodi:nodetypes="ccccccccccccc" />
    <path
       id="rect3007-3-3-3"
       style="display:inline;fill:none;stroke:#191919;stroke-width:0.99963582;stroke-miterlimit:4;stroke-dasharray:none;stroke-opacity:1"
       d="m 20.438078,1051.8622 c -1.696757,-0.044 -3.447995,-1.7858 -4.013671,-3.2031 l -9.009766,-23.7989 c -0.612982,-1.5358 -1.314348,-2.984 -2.95859,-2.998 h -1 c -1.644242,0.014 -2.345608,1.4622 -2.95859,2.998 l -9.0097661,23.7989 c -0.5656764,1.4173 -2.3528599,3.1591 -4.0496169,3.2031"
       inkscape:connector-curvature="0"
       sodipodi:nodetypes="cccccccc" />
  </g>
</svg>
